<svg width="16" height="16" viewBox="0 0 16 16" fill="none" xmlns="http://www.w3.org/2000/svg">
<path d="M14.415 11.585L11.5 8.66497V6.49997C11.5003 6.43417 11.4877 6.36894 11.4629 6.30802C11.438 6.2471 11.4013 6.19169 11.355 6.14497L6.35497 1.14497C6.30849 1.09811 6.25319 1.06091 6.19226 1.03552C6.13133 1.01014 6.06598 0.99707 5.99997 0.99707C5.93396 0.99707 5.86861 1.01014 5.80768 1.03552C5.74675 1.06091 5.69145 1.09811 5.64497 1.14497L1.14497 5.64497C1.09811 5.69145 1.06091 5.74675 1.03552 5.80768C1.01014 5.86861 0.99707 5.93396 0.99707 5.99997C0.99707 6.06598 1.01014 6.13133 1.03552 6.19226C1.06091 6.25319 1.09811 6.30849 1.14497 6.35497L6.14497 11.355C6.19169 11.4013 6.2471 11.438 6.30802 11.4629C6.36894 11.4877 6.43417 11.5003 6.49997 11.5H8.66997L11.585 14.42C11.9603 14.7953 12.4692 15.0061 13 15.0061C13.5307 15.0061 14.0397 14.7953 14.415 14.42C14.7903 14.0447 15.0011 13.5357 15.0011 13.005C15.0011 12.4742 14.7903 11.9653 14.415 11.59V11.585ZM2.99997 5.20497L4.14497 6.35497L4.85497 5.64497L3.70497 4.49997L4.49997 3.70497L6.64497 5.85497L7.35497 5.14497L5.20497 2.99997L5.99997 2.20497L9.29497 5.49997L5.49997 9.29497L2.20497 5.99997L2.99997 5.20497ZM13.705 13.705C13.5176 13.8912 13.2642 13.9958 13 13.9958C12.7358 13.9958 12.4823 13.8912 12.295 13.705L9.22997 10.645C9.12343 10.5717 9.00235 10.5222 8.87497 10.5H6.70497L6.20497 9.99997L9.99997 6.20497L10.5 6.70497V8.87497C10.5005 9.00614 10.5526 9.13184 10.645 9.22497L13.705 12.295C13.8912 12.4823 13.9958 12.7358 13.9958 13C13.9958 13.2642 13.8912 13.5176 13.705 13.705V13.705Z" fill="#292929"/>
</svg>
