<svg width="16" height="16" viewBox="0 0 16 16" fill="none" xmlns="http://www.w3.org/2000/svg">
<path d="M7.78949 7.57181L6.52258 4.35385C6.45655 4.20528 6.24431 4.20928 6.18393 4.36024L4.90436 7.55916C4.88567 7.60587 4.84866 7.64288 4.80195 7.66157L1.62532 8.93222C1.47125 8.99385 1.47125 9.21194 1.62532 9.27357L4.80195 10.5442C4.84866 10.5629 4.88567 10.5999 4.90436 10.6466L6.17501 13.8233C6.23664 13.9773 6.45473 13.9773 6.51636 13.8233L7.78702 10.6466C7.8057 10.5999 7.84271 10.5629 7.88942 10.5442L11.1127 9.25492C11.2599 9.19602 11.2685 8.99076 11.1266 8.91983L7.87526 7.66157C7.83713 7.6425 7.80681 7.61077 7.78949 7.57181Z" fill="#292929"/>
<path d="M12.5145 3.91417L12.0362 2.33204C11.9836 2.15787 11.737 2.15787 11.6843 2.33204L11.206 3.91417C11.1882 3.97305 11.1421 4.01913 11.0832 4.03693L9.5011 4.51525C9.32693 4.5679 9.32693 4.81451 9.5011 4.86716L11.0832 5.34548C11.1421 5.36328 11.1882 5.40936 11.206 5.46824L11.6843 7.05037C11.737 7.22453 11.9836 7.22454 12.0362 7.05037L12.5145 5.46824C12.5323 5.40936 12.5784 5.36328 12.6373 5.34548L14.2194 4.86716C14.3936 4.81451 14.3936 4.5679 14.2194 4.51525L12.6373 4.03693C12.5784 4.01913 12.5323 3.97305 12.5145 3.91417Z" fill="#292929"/>
</svg>
