<svg width="16" height="16" viewBox="0 0 16 16" fill="none" xmlns="http://www.w3.org/2000/svg">
<path d="M15 5.33995L14 2.33995C13.9652 2.23646 13.8975 2.1472 13.8072 2.0858C13.717 2.02441 13.6091 1.99426 13.5 1.99995H2.50003C2.391 1.99426 2.2831 2.02441 2.19281 2.0858C2.10253 2.1472 2.03482 2.23646 2.00003 2.33995L1.00003 5.33995C0.992828 5.39304 0.992828 5.44686 1.00003 5.49995V8.49995C1.00003 8.63256 1.05271 8.75973 1.14648 8.8535C1.24025 8.94727 1.36742 8.99995 1.50003 8.99995H2.00003V13.9999H3.00003V8.99995H6.00003V13.9999H14V8.99995H14.5C14.6326 8.99995 14.7598 8.94727 14.8536 8.8535C14.9474 8.75973 15 8.63256 15 8.49995V5.49995C15.0072 5.44686 15.0072 5.39304 15 5.33995V5.33995ZM13 12.9999H7.00003V8.99995H13V12.9999ZM14 7.99995H12V5.99995H11V7.99995H8.50003V5.99995H7.50003V7.99995H5.00003V5.99995H4.00003V7.99995H2.00003V5.57995L2.86003 2.99995H13.14L14 5.57995V7.99995Z" fill="#292929"/>
</svg>
